<svg width="37" height="37" viewBox="0 0 37 37" fill="none" xmlns="http://www.w3.org/2000/svg">
<path d="M37 18.5C37 23.4065 35.0509 28.1121 31.5815 31.5815C28.1121 35.0509 23.4065 37 18.5 37C13.5935 37 8.88795 35.0509 5.41852 31.5815C1.9491 28.1121 0 23.4065 0 18.5C0 13.5935 1.9491 8.88795 5.41852 5.41852C8.88795 1.9491 13.5935 0 18.5 0C23.4065 0 28.1121 1.9491 31.5815 5.41852C35.0509 8.88795 37 13.5935 37 18.5ZM19.6562 10.4062C19.6562 10.0996 19.5344 9.8055 19.3176 9.58866C19.1008 9.37182 18.8067 9.25 18.5 9.25C18.1933 9.25 17.8992 9.37182 17.6824 9.58866C17.4656 9.8055 17.3438 10.0996 17.3438 10.4062V23.8026L12.3811 18.8376C12.164 18.6205 11.8695 18.4985 11.5625 18.4985C11.2555 18.4985 10.961 18.6205 10.7439 18.8376C10.5268 19.0547 10.4048 19.3492 10.4048 19.6562C10.4048 19.9633 10.5268 20.2578 10.7439 20.4749L17.6814 27.4124C17.7888 27.5201 17.9164 27.6055 18.0568 27.6638C18.1973 27.7221 18.3479 27.7521 18.5 27.7521C18.6521 27.7521 18.8027 27.7221 18.9432 27.6638C19.0836 27.6055 19.2112 27.5201 19.3186 27.4124L26.2561 20.4749C26.4732 20.2578 26.5952 19.9633 26.5952 19.6562C26.5952 19.3492 26.4732 19.0547 26.2561 18.8376C26.039 18.6205 25.7445 18.4985 25.4375 18.4985C25.1305 18.4985 24.836 18.6205 24.6189 18.8376L19.6562 23.8026V10.4062Z" fill="#F8F9FA"/>
</svg>
